<?xml version="1.0" standalone="no"?>
<!DOCTYPE svg PUBLIC "-//W3C//DTD SVG 20010904//EN"
 "http://www.w3.org/TR/2001/REC-SVG-20010904/DTD/svg10.dtd">
<svg version="1.0" xmlns="http://www.w3.org/2000/svg"
 width="260.000000pt" height="260.000000pt" viewBox="0 0 260.000000 260.000000"
 preserveAspectRatio="xMidYMid meet">
<metadata>
Created by potrace 1.11, written by Peter Selinger 2001-2013
</metadata>
<g transform="translate(0.000000,260.000000) scale(0.100000,-0.100000)"
fill="#000000" stroke="none">
<path d="M0 1300 l0 -1300 1300 0 1300 0 0 1300 0 1300 -1300 0 -1300 0 0
-1300z m1238 752 l62 -20 63 20 c35 12 104 22 159 25 166 9 291 -28 372 -111
53 -55 76 -114 83 -216 8 -113 -15 -203 -87 -342 -67 -130 -90 -209 -90 -313
0 -104 -19 -282 -36 -350 -36 -137 -102 -225 -170 -225 -86 0 -103 36 -108
222 -5 156 -27 269 -71 362 -33 71 -64 98 -110 98 -50 0 -84 -27 -117 -92 -42
-84 -59 -172 -68 -347 -11 -208 -27 -243 -114 -243 -67 0 -133 87 -170 225 -9
33 -21 134 -27 225 -16 257 -22 286 -95 429 -91 178 -113 303 -79 435 33 127
119 198 290 240 50 12 252 -2 313 -22z"/>
<path d="M940 2013 c-54 -9 -120 -35 -158 -63 -81 -58 -109 -149 -92 -298 8
-74 17 -101 75 -216 36 -72 72 -158 80 -191 9 -33 20 -141 25 -240 9 -182 24
-264 60 -341 36 -74 82 -104 107 -71 6 6 13 76 17 155 12 274 73 449 174 498
52 26 121 23 161 -5 91 -65 161 -289 161 -518 0 -57 5 -113 10 -124 23 -42 72
-13 110 65 36 76 51 159 60 341 5 99 16 207 25 240 8 33 44 119 80 191 58 115
67 142 75 216 17 144 -10 237 -85 294 -81 62 -221 86 -364 64 -45 -7 -81 -16
-81 -20 0 -3 23 -17 51 -30 51 -24 70 -45 62 -67 -8 -23 -42 -14 -151 42 -142
74 -275 99 -402 78z"/>
</g>
</svg>
